<?xml version="1.0" standalone="no"?>
<!DOCTYPE svg PUBLIC "-//W3C//DTD SVG 20010904//EN"
 "http://www.w3.org/TR/2001/REC-SVG-20010904/DTD/svg10.dtd">
<svg version="1.0" xmlns="http://www.w3.org/2000/svg"
 width="652.000000pt" height="600.000000pt" viewBox="0 0 652.000000 600.000000"
 preserveAspectRatio="xMidYMid meet">

<g transform="translate(0.000000,600.000000) scale(0.100000,-0.100000)"
fill="#000000" stroke="none">
<path d="M2855 5915 c-824 -86 -1547 -401 -2062 -898 -384 -372 -609 -776
-699 -1259 -22 -113 -30 -440 -15 -565 34 -272 123 -547 256 -782 237 -422
591 -764 1074 -1040 68 -39 126 -72 128 -75 2 -2 -64 -257 -147 -566 -82 -309
-150 -574 -150 -590 0 -41 41 -80 84 -80 28 0 66 21 188 103 443 300 1144 774
1153 779 6 3 64 -1 130 -10 157 -20 723 -23 875 -4 304 38 573 96 815 178 973
327 1676 1007 1881 1819 183 729 -44 1475 -625 2055 -502 501 -1180 813 -2013
926 -159 22 -699 27 -873 9z"/>
</g>
</svg>
